{"title":"Game of Thrones S03E05 1080i HDTV DD5.1 MPEG2-TrollHD [PublicHD]","uid":8421829,"size":5930294089,"categoryP":"video","categoryS":"hd___tv_shows","magnet":"?xt=urn:btih:b2af7fb1d4aeda26159044a2eb9f28c474c12a7e&amp;dn=Game+of+Thrones+S03E05+1080i+HDTV+DD5.1+MPEG2-TrollHD+%5BPublicHD%5D&amp;tr=udp%3A%2F%2Ftracker.openbittorrent.com%3A80&amp;tr=udp%3A%2F%2Fopen.demonii.com%3A1337&amp;tr=udp%3A%2F%2Ftracker.coppersurfer.tk%3A6969&amp;tr=udp%3A%2F%2Fexodus.desync.com%3A6969","seeders":0,"leechers":0,"uploader":"DibyaTPB","files":2,"time":1367217179,"description":"                PublicHD - High-Definition Bittorrent Community\n      \n                           &lt;a href=&quot; https://publichd.se/&quot; rel=&quot;nofollow&quot; target=&quot;_NEW&quot;&gt; https://publichd.se/&lt;/a&gt;\n    \n              ----------------------------------------------------\n\nSequence Summary:\n\nFile Size Processed: 5.52 GB, Play Time: 00h:59m:28s\n1920 x 1080, 29.97 fps (24.35 fps Telecine), 38.80 Mbps (12.53 Mbps Average).\nAverage Video Quality: 62.81 KB/Frame, 0.25 Bits/Pixel.\nAC3 Audio: 3/2 Channels (L, C, R, SL, SR) + LFE, 48.0 kHz, 384 kbps.\nDialog Normalization: -24.0 dB, Center Mix Level: -3.0 dB, Surround Mix Level: -3.0 dB\n0 of 86900 video frames found with errors.\n0 of 111513 audio frames found with errors.\n0 corrupted video bytes in file.\n0.000000 seconds of video timestamp gaps.\n0.000000 seconds of audio timestamp gaps.\n\nEnd of Log\n\nGeneral\nID : 1 (0x1)\nComplete name : Game of Thrones S03E05 1080i HDTV DD5.1 MPEG2-TrollHD.ts\nFormat : MPEG-TS\nFile size : 5.52 GiB\nDuration : 59mn 28s\nOverall bit rate : 13.3 Mbps\n\nVideo\nID : 6701 (0x1A2D)\nMenu ID : 1 (0x1)\nFormat : MPEG Video\nFormat version : Version 2\nFormat profile : Main@High\nFormat settings, BVOP : Yes\nFormat settings, Matrix : Default\nCodec ID : 2\nDuration : 59mn 28s\nBit rate mode : Variable\nBit rate : 12.2 Mbps\nNominal bit rate : 38.8 Mbps\nWidth : 1 920 pixels\nHeight : 1 080 pixels\nDisplay aspect ratio : 16:9\nFrame rate : 29.970 fps\nColor space : YUV\nChroma subsampling : 4:2:0\nBit depth : 8 bits\nCompression mode : Lossy\nBits/(Pixel*Frame) : 0.197\nStream size : 5.09 GiB (92%)\n\nAudio\nID : 6702 (0x1A2E)\nMenu ID : 1 (0x1)\nFormat : AC-3\nFormat/Info : Audio Coding 3\nMode extension : CM (complete main)\nCodec ID : 129\nDuration : 59mn 28s\nBit rate mode : Constant\nBit rate : 384 Kbps\nChannel(s) : 2 channels\nChannel positions : Front: L R\nSampling rate : 48.0 KHz\nBit depth : 16 bits\nCompression mode : Lossy\nDelay relative to video : 5ms\nStream size : 163 MiB (3%)\nLanguage : English\n\nText #1\nID : 6701 (0x1A2D)608-1\nMenu ID : 1 (0x1)\nFormat : EIA-608\nMuxing mode : A/53 / DTVCC Transport\nMuxing mode, more info : Muxed in Video #1\nDuration : 59mn 28s\nStream size : 0.00 Byte (0%)\n\nText #2\nID : 6701 (0x1A2D)1\nMenu ID : 1 (0x1)\nFormat : EIA-708\nMuxing mode : A/53 / DTVCC Transport\nMuxing mode, more info : Muxed in Video #1\nDuration : 59mn 28s\nStream size : 0.00 Byte (0%)","torrent":{"xt":"urn:btih:b2af7fb1d4aeda26159044a2eb9f28c474c12a7e","amp;dn":"Game+of+Thrones+S03E05+1080i+HDTV+DD5.1+MPEG2-TrollHD+%5BPublicHD%5D","amp;tr":["udp%3A%2F%2Ftracker.openbittorrent.com%3A80","udp%3A%2F%2Fopen.demonii.com%3A1337","udp%3A%2F%2Ftracker.coppersurfer.tk%3A6969","udp%3A%2F%2Fexodus.desync.com%3A6969"],"infoHash":"b2af7fb1d4aeda26159044a2eb9f28c474c12a7e","infoHashBuffer":{"type":"Buffer","data":[178,175,127,177,212,174,218,38,21,144,68,162,235,159,40,196,116,193,42,126]},"announce":[],"urlList":[]}}